<svg xmlns="http://www.w3.org/2000/svg" width="18" height="18" viewBox="0 0 24 24" fill="none" stroke="none">
  <circle cx="12" cy="12" r="9" fill="#38BDF8" stroke="#0EA5E9" stroke-width="1"/>
  <path d="M3.6 12h16.8" fill="none" stroke="#E0F2FE" stroke-width="1.4" stroke-linecap="round" stroke-linejoin="round"/>
  <path d="M12 3.5c2.6 3 2.6 14 0 17" fill="none" stroke="#E0F2FE" stroke-width="1.4" stroke-linecap="round" stroke-linejoin="round"/>
  <path d="M12 3.5c-2.6 3-2.6 14 0 17" fill="none" stroke="#E0F2FE" stroke-width="1.4" stroke-linecap="round" stroke-linejoin="round"/>
  <path d="M6.2 8.6c1.2-.9 2.6-1.3 3.9-1.2c1 .1 1.9.4 2.6.9c.8.5 1.6 1.2 2.6 1.4c.7.2 1.5.1 2.3-.1" fill="none" stroke="#A16207" stroke-width="1.6" stroke-linecap="round" stroke-linejoin="round"/>
  <path d="M7.4 14.6c.9.8 2.1 1.2 3.4 1.2c1 0 2-.3 2.8-.8" fill="none" stroke="#A16207" stroke-width="1.6" stroke-linecap="round" stroke-linejoin="round"/>
</svg>
